<mxfile host="app.diagrams.net" modified="2022-01-10T11:35:23.098Z" agent="5.0 (Windows NT 10.0; Win64; x64) AppleWebKit/537.36 (KHTML, like Gecko) Chrome/95.0.4638.69 Safari/537.36" etag="ZLbpNpfAtVE6XhdwJhZA" version="16.2.4" type="github">
  <diagram id="zbSymQNW7zjosG3z_Vuy" name="Page-1">
    <mxGraphModel dx="1140" dy="685" grid="1" gridSize="10" guides="1" tooltips="1" connect="1" arrows="1" fold="1" page="1" pageScale="1" pageWidth="827" pageHeight="1169" math="0" shadow="0">
      <root>
        <mxCell id="0" />
        <mxCell id="1" parent="0" />
        <mxCell id="6AxE83Xvaau8DeTZBo7b-11" style="edgeStyle=orthogonalEdgeStyle;rounded=0;orthogonalLoop=1;jettySize=auto;html=1;" edge="1" parent="1" source="6AxE83Xvaau8DeTZBo7b-1" target="6AxE83Xvaau8DeTZBo7b-9">
          <mxGeometry relative="1" as="geometry" />
        </mxCell>
        <mxCell id="6AxE83Xvaau8DeTZBo7b-15" style="edgeStyle=orthogonalEdgeStyle;rounded=0;orthogonalLoop=1;jettySize=auto;html=1;" edge="1" parent="1" source="6AxE83Xvaau8DeTZBo7b-1" target="6AxE83Xvaau8DeTZBo7b-14">
          <mxGeometry relative="1" as="geometry" />
        </mxCell>
        <mxCell id="6AxE83Xvaau8DeTZBo7b-1" value="从&amp;nbsp;point1&amp;nbsp;到&amp;nbsp;&lt;br&gt;point1 +&amp;nbsp;batch_size&lt;br&gt;构建点集（线程开始）" style="rounded=0;whiteSpace=wrap;html=1;" vertex="1" parent="1">
          <mxGeometry x="120" y="300" width="140" height="70" as="geometry" />
        </mxCell>
        <mxCell id="6AxE83Xvaau8DeTZBo7b-17" style="edgeStyle=orthogonalEdgeStyle;rounded=0;orthogonalLoop=1;jettySize=auto;html=1;" edge="1" parent="1" source="6AxE83Xvaau8DeTZBo7b-2" target="6AxE83Xvaau8DeTZBo7b-16">
          <mxGeometry relative="1" as="geometry" />
        </mxCell>
        <mxCell id="6AxE83Xvaau8DeTZBo7b-2" value="开始" style="rounded=1;whiteSpace=wrap;html=1;" vertex="1" parent="1">
          <mxGeometry x="155" y="70" width="70" height="30" as="geometry" />
        </mxCell>
        <mxCell id="6AxE83Xvaau8DeTZBo7b-4" style="edgeStyle=orthogonalEdgeStyle;rounded=0;orthogonalLoop=1;jettySize=auto;html=1;exitX=0.5;exitY=1;exitDx=0;exitDy=0;entryX=0.5;entryY=0;entryDx=0;entryDy=0;" edge="1" parent="1" source="6AxE83Xvaau8DeTZBo7b-3" target="6AxE83Xvaau8DeTZBo7b-1">
          <mxGeometry relative="1" as="geometry" />
        </mxCell>
        <mxCell id="6AxE83Xvaau8DeTZBo7b-47" style="edgeStyle=orthogonalEdgeStyle;rounded=0;orthogonalLoop=1;jettySize=auto;html=1;exitX=1;exitY=0.5;exitDx=0;exitDy=0;entryX=0.5;entryY=0;entryDx=0;entryDy=0;" edge="1" parent="1" source="6AxE83Xvaau8DeTZBo7b-3" target="6AxE83Xvaau8DeTZBo7b-36">
          <mxGeometry relative="1" as="geometry">
            <Array as="points">
              <mxPoint x="300" y="230" />
              <mxPoint x="300" y="450" />
              <mxPoint x="190" y="450" />
            </Array>
          </mxGeometry>
        </mxCell>
        <mxCell id="6AxE83Xvaau8DeTZBo7b-3" value="point1&amp;nbsp;是否到达 EOF？" style="rhombus;whiteSpace=wrap;html=1;" vertex="1" parent="1">
          <mxGeometry x="92.5" y="190" width="195" height="80" as="geometry" />
        </mxCell>
        <mxCell id="6AxE83Xvaau8DeTZBo7b-5" value="否" style="text;html=1;strokeColor=none;fillColor=none;align=center;verticalAlign=middle;whiteSpace=wrap;rounded=0;" vertex="1" parent="1">
          <mxGeometry x="170" y="270" width="60" height="30" as="geometry" />
        </mxCell>
        <mxCell id="6AxE83Xvaau8DeTZBo7b-12" style="edgeStyle=orthogonalEdgeStyle;rounded=0;orthogonalLoop=1;jettySize=auto;html=1;" edge="1" parent="1" source="6AxE83Xvaau8DeTZBo7b-9">
          <mxGeometry relative="1" as="geometry">
            <mxPoint x="90" y="230" as="targetPoint" />
            <Array as="points">
              <mxPoint x="50" y="420" />
              <mxPoint x="50" y="230" />
            </Array>
          </mxGeometry>
        </mxCell>
        <mxCell id="6AxE83Xvaau8DeTZBo7b-9" value="&lt;span style=&quot;font-family: &amp;#34;helvetica&amp;#34;&quot;&gt;point1 +=&amp;nbsp;batch_size&lt;/span&gt;" style="rounded=0;whiteSpace=wrap;html=1;" vertex="1" parent="1">
          <mxGeometry x="120" y="400" width="140" height="40" as="geometry" />
        </mxCell>
        <mxCell id="6AxE83Xvaau8DeTZBo7b-20" style="edgeStyle=orthogonalEdgeStyle;rounded=0;orthogonalLoop=1;jettySize=auto;html=1;entryX=0;entryY=0.5;entryDx=0;entryDy=0;" edge="1" parent="1" source="6AxE83Xvaau8DeTZBo7b-14" target="6AxE83Xvaau8DeTZBo7b-19">
          <mxGeometry relative="1" as="geometry" />
        </mxCell>
        <mxCell id="6AxE83Xvaau8DeTZBo7b-14" value="&lt;font face=&quot;helvetica&quot;&gt;Despatcher&amp;nbsp;分发任务到线程池&lt;/font&gt;" style="rounded=0;whiteSpace=wrap;html=1;" vertex="1" parent="1">
          <mxGeometry x="320" y="405" width="100" height="45" as="geometry" />
        </mxCell>
        <mxCell id="6AxE83Xvaau8DeTZBo7b-18" style="edgeStyle=orthogonalEdgeStyle;rounded=0;orthogonalLoop=1;jettySize=auto;html=1;" edge="1" parent="1" source="6AxE83Xvaau8DeTZBo7b-16" target="6AxE83Xvaau8DeTZBo7b-3">
          <mxGeometry relative="1" as="geometry" />
        </mxCell>
        <mxCell id="6AxE83Xvaau8DeTZBo7b-16" value="&lt;font face=&quot;helvetica&quot;&gt;创建线程池&lt;br&gt;参数初始化&lt;br&gt;&lt;/font&gt;" style="rounded=0;whiteSpace=wrap;html=1;" vertex="1" parent="1">
          <mxGeometry x="138.75" y="120" width="102.5" height="50" as="geometry" />
        </mxCell>
        <mxCell id="6AxE83Xvaau8DeTZBo7b-45" style="edgeStyle=orthogonalEdgeStyle;rounded=0;orthogonalLoop=1;jettySize=auto;html=1;entryX=0;entryY=0.5;entryDx=0;entryDy=0;" edge="1" parent="1" source="6AxE83Xvaau8DeTZBo7b-19" target="6AxE83Xvaau8DeTZBo7b-24">
          <mxGeometry relative="1" as="geometry" />
        </mxCell>
        <mxCell id="6AxE83Xvaau8DeTZBo7b-19" value="&lt;font face=&quot;helvetica&quot;&gt;字符格式化&lt;/font&gt;" style="rounded=0;whiteSpace=wrap;html=1;" vertex="1" parent="1">
          <mxGeometry x="450" y="405" width="70" height="45" as="geometry" />
        </mxCell>
        <mxCell id="6AxE83Xvaau8DeTZBo7b-41" style="edgeStyle=orthogonalEdgeStyle;rounded=0;orthogonalLoop=1;jettySize=auto;html=1;exitX=0.5;exitY=1;exitDx=0;exitDy=0;entryX=1;entryY=0.5;entryDx=0;entryDy=0;" edge="1" parent="1" source="6AxE83Xvaau8DeTZBo7b-23" target="6AxE83Xvaau8DeTZBo7b-26">
          <mxGeometry relative="1" as="geometry" />
        </mxCell>
        <mxCell id="6AxE83Xvaau8DeTZBo7b-23" value="&lt;font face=&quot;helvetica&quot;&gt;批量添加节点或边&lt;/font&gt;" style="rounded=0;whiteSpace=wrap;html=1;" vertex="1" parent="1">
          <mxGeometry x="620" y="450" width="80" height="45" as="geometry" />
        </mxCell>
        <mxCell id="6AxE83Xvaau8DeTZBo7b-39" style="edgeStyle=orthogonalEdgeStyle;rounded=0;orthogonalLoop=1;jettySize=auto;html=1;exitX=1;exitY=0.5;exitDx=0;exitDy=0;entryX=0.5;entryY=0;entryDx=0;entryDy=0;" edge="1" parent="1" source="6AxE83Xvaau8DeTZBo7b-24" target="6AxE83Xvaau8DeTZBo7b-23">
          <mxGeometry relative="1" as="geometry" />
        </mxCell>
        <mxCell id="6AxE83Xvaau8DeTZBo7b-24" value="&lt;font face=&quot;helvetica&quot;&gt;获取锁&lt;/font&gt;" style="rounded=0;whiteSpace=wrap;html=1;" vertex="1" parent="1">
          <mxGeometry x="550" y="407.5" width="50" height="40" as="geometry" />
        </mxCell>
        <mxCell id="6AxE83Xvaau8DeTZBo7b-44" style="edgeStyle=orthogonalEdgeStyle;rounded=0;orthogonalLoop=1;jettySize=auto;html=1;entryX=1;entryY=0.5;entryDx=0;entryDy=0;" edge="1" parent="1" source="6AxE83Xvaau8DeTZBo7b-26" target="6AxE83Xvaau8DeTZBo7b-28">
          <mxGeometry relative="1" as="geometry" />
        </mxCell>
        <mxCell id="6AxE83Xvaau8DeTZBo7b-26" value="&lt;font face=&quot;helvetica&quot;&gt;释放锁&lt;/font&gt;" style="rounded=0;whiteSpace=wrap;html=1;" vertex="1" parent="1">
          <mxGeometry x="530" y="495" width="50" height="42.5" as="geometry" />
        </mxCell>
        <mxCell id="6AxE83Xvaau8DeTZBo7b-28" value="线程结束" style="rounded=1;whiteSpace=wrap;html=1;" vertex="1" parent="1">
          <mxGeometry x="430" y="501.25" width="70" height="30" as="geometry" />
        </mxCell>
        <mxCell id="6AxE83Xvaau8DeTZBo7b-33" style="edgeStyle=orthogonalEdgeStyle;rounded=0;orthogonalLoop=1;jettySize=auto;html=1;exitX=0.5;exitY=1;exitDx=0;exitDy=0;" edge="1" parent="1" source="6AxE83Xvaau8DeTZBo7b-28" target="6AxE83Xvaau8DeTZBo7b-28">
          <mxGeometry relative="1" as="geometry" />
        </mxCell>
        <mxCell id="6AxE83Xvaau8DeTZBo7b-49" style="edgeStyle=orthogonalEdgeStyle;rounded=0;orthogonalLoop=1;jettySize=auto;html=1;exitX=0.5;exitY=1;exitDx=0;exitDy=0;" edge="1" parent="1" source="6AxE83Xvaau8DeTZBo7b-36" target="6AxE83Xvaau8DeTZBo7b-48">
          <mxGeometry relative="1" as="geometry" />
        </mxCell>
        <mxCell id="6AxE83Xvaau8DeTZBo7b-65" style="edgeStyle=orthogonalEdgeStyle;rounded=0;orthogonalLoop=1;jettySize=auto;html=1;exitX=1;exitY=0.5;exitDx=0;exitDy=0;entryX=0.5;entryY=0;entryDx=0;entryDy=0;" edge="1" parent="1" source="6AxE83Xvaau8DeTZBo7b-36" target="6AxE83Xvaau8DeTZBo7b-64">
          <mxGeometry relative="1" as="geometry" />
        </mxCell>
        <mxCell id="6AxE83Xvaau8DeTZBo7b-36" value="point2 是否到达 EOF？" style="rhombus;whiteSpace=wrap;html=1;" vertex="1" parent="1">
          <mxGeometry x="92.5" y="470" width="195" height="80" as="geometry" />
        </mxCell>
        <mxCell id="6AxE83Xvaau8DeTZBo7b-38" value="是" style="text;html=1;strokeColor=none;fillColor=none;align=center;verticalAlign=middle;whiteSpace=wrap;rounded=0;" vertex="1" parent="1">
          <mxGeometry x="260" y="260" width="60" height="30" as="geometry" />
        </mxCell>
        <mxCell id="6AxE83Xvaau8DeTZBo7b-50" style="edgeStyle=orthogonalEdgeStyle;rounded=0;orthogonalLoop=1;jettySize=auto;html=1;entryX=0.5;entryY=1;entryDx=0;entryDy=0;" edge="1" parent="1" source="6AxE83Xvaau8DeTZBo7b-48" target="6AxE83Xvaau8DeTZBo7b-14">
          <mxGeometry relative="1" as="geometry" />
        </mxCell>
        <mxCell id="6AxE83Xvaau8DeTZBo7b-52" style="edgeStyle=orthogonalEdgeStyle;rounded=0;orthogonalLoop=1;jettySize=auto;html=1;entryX=0.5;entryY=0;entryDx=0;entryDy=0;" edge="1" parent="1" source="6AxE83Xvaau8DeTZBo7b-48" target="6AxE83Xvaau8DeTZBo7b-51">
          <mxGeometry relative="1" as="geometry" />
        </mxCell>
        <mxCell id="6AxE83Xvaau8DeTZBo7b-48" value="从&amp;nbsp;point2&amp;nbsp;到&amp;nbsp;&lt;br&gt;point2 +&amp;nbsp;batch_size&lt;br&gt;构建边集（线程开始）" style="rounded=0;whiteSpace=wrap;html=1;" vertex="1" parent="1">
          <mxGeometry x="120" y="570" width="140" height="70" as="geometry" />
        </mxCell>
        <mxCell id="6AxE83Xvaau8DeTZBo7b-53" style="edgeStyle=orthogonalEdgeStyle;rounded=0;orthogonalLoop=1;jettySize=auto;html=1;entryX=0;entryY=0.5;entryDx=0;entryDy=0;" edge="1" parent="1" source="6AxE83Xvaau8DeTZBo7b-51" target="6AxE83Xvaau8DeTZBo7b-36">
          <mxGeometry relative="1" as="geometry">
            <Array as="points">
              <mxPoint x="50" y="680" />
              <mxPoint x="50" y="510" />
            </Array>
          </mxGeometry>
        </mxCell>
        <mxCell id="6AxE83Xvaau8DeTZBo7b-51" value="&lt;span style=&quot;font-family: &amp;#34;helvetica&amp;#34;&quot;&gt;point2 +=&amp;nbsp;batch_size&lt;/span&gt;" style="rounded=0;whiteSpace=wrap;html=1;" vertex="1" parent="1">
          <mxGeometry x="120" y="670" width="140" height="40" as="geometry" />
        </mxCell>
        <mxCell id="6AxE83Xvaau8DeTZBo7b-54" value="否" style="text;html=1;strokeColor=none;fillColor=none;align=center;verticalAlign=middle;whiteSpace=wrap;rounded=0;" vertex="1" parent="1">
          <mxGeometry x="181.25" y="540" width="60" height="30" as="geometry" />
        </mxCell>
        <mxCell id="6AxE83Xvaau8DeTZBo7b-57" value="是" style="text;html=1;strokeColor=none;fillColor=none;align=center;verticalAlign=middle;whiteSpace=wrap;rounded=0;" vertex="1" parent="1">
          <mxGeometry x="280" y="531.25" width="60" height="30" as="geometry" />
        </mxCell>
        <mxCell id="6AxE83Xvaau8DeTZBo7b-66" style="edgeStyle=orthogonalEdgeStyle;rounded=0;orthogonalLoop=1;jettySize=auto;html=1;entryX=0.5;entryY=0;entryDx=0;entryDy=0;" edge="1" parent="1" source="6AxE83Xvaau8DeTZBo7b-64">
          <mxGeometry relative="1" as="geometry">
            <mxPoint x="337.5" y="750" as="targetPoint" />
          </mxGeometry>
        </mxCell>
        <mxCell id="6AxE83Xvaau8DeTZBo7b-64" value="&lt;font face=&quot;helvetica&quot;&gt;遍历图 G&amp;nbsp;的所有顶点&lt;/font&gt;" style="rounded=0;whiteSpace=wrap;html=1;" vertex="1" parent="1">
          <mxGeometry x="287.5" y="667.5" width="100" height="45" as="geometry" />
        </mxCell>
        <mxCell id="6AxE83Xvaau8DeTZBo7b-67" style="edgeStyle=orthogonalEdgeStyle;rounded=0;orthogonalLoop=1;jettySize=auto;html=1;entryX=0;entryY=0.5;entryDx=0;entryDy=0;" edge="1" parent="1" source="6AxE83Xvaau8DeTZBo7b-68" target="6AxE83Xvaau8DeTZBo7b-70">
          <mxGeometry relative="1" as="geometry" />
        </mxCell>
        <mxCell id="6AxE83Xvaau8DeTZBo7b-68" value="&lt;font face=&quot;helvetica&quot;&gt;Despatcher&amp;nbsp;分发任务到线程池&lt;/font&gt;" style="rounded=0;whiteSpace=wrap;html=1;" vertex="1" parent="1">
          <mxGeometry x="387.5" y="750" width="100" height="45" as="geometry" />
        </mxCell>
        <mxCell id="6AxE83Xvaau8DeTZBo7b-69" style="edgeStyle=orthogonalEdgeStyle;rounded=0;orthogonalLoop=1;jettySize=auto;html=1;entryX=0;entryY=0.5;entryDx=0;entryDy=0;" edge="1" parent="1" source="6AxE83Xvaau8DeTZBo7b-70" target="6AxE83Xvaau8DeTZBo7b-72">
          <mxGeometry relative="1" as="geometry" />
        </mxCell>
        <mxCell id="6AxE83Xvaau8DeTZBo7b-70" value="&lt;font face=&quot;helvetica&quot;&gt;并行 DFS&amp;nbsp;搜索环&lt;/font&gt;" style="rounded=0;whiteSpace=wrap;html=1;" vertex="1" parent="1">
          <mxGeometry x="513.5" y="750" width="100" height="45" as="geometry" />
        </mxCell>
        <mxCell id="6AxE83Xvaau8DeTZBo7b-76" style="edgeStyle=orthogonalEdgeStyle;rounded=0;orthogonalLoop=1;jettySize=auto;html=1;entryX=1;entryY=0.5;entryDx=0;entryDy=0;" edge="1" parent="1" source="6AxE83Xvaau8DeTZBo7b-72" target="6AxE83Xvaau8DeTZBo7b-73">
          <mxGeometry relative="1" as="geometry">
            <Array as="points">
              <mxPoint x="664" y="845" />
            </Array>
          </mxGeometry>
        </mxCell>
        <mxCell id="6AxE83Xvaau8DeTZBo7b-72" value="&lt;font face=&quot;helvetica&quot;&gt;输出结果到文件&lt;/font&gt;" style="rounded=0;whiteSpace=wrap;html=1;" vertex="1" parent="1">
          <mxGeometry x="633.5" y="751.25" width="60" height="42.5" as="geometry" />
        </mxCell>
        <mxCell id="6AxE83Xvaau8DeTZBo7b-73" value="线程结束" style="rounded=1;whiteSpace=wrap;html=1;" vertex="1" parent="1">
          <mxGeometry x="520" y="830" width="70" height="30" as="geometry" />
        </mxCell>
        <mxCell id="6AxE83Xvaau8DeTZBo7b-75" style="edgeStyle=orthogonalEdgeStyle;rounded=0;orthogonalLoop=1;jettySize=auto;html=1;entryX=0;entryY=0.5;entryDx=0;entryDy=0;" edge="1" parent="1" source="6AxE83Xvaau8DeTZBo7b-74" target="6AxE83Xvaau8DeTZBo7b-68">
          <mxGeometry relative="1" as="geometry" />
        </mxCell>
        <mxCell id="6AxE83Xvaau8DeTZBo7b-79" style="edgeStyle=orthogonalEdgeStyle;rounded=0;orthogonalLoop=1;jettySize=auto;html=1;entryX=0.5;entryY=0;entryDx=0;entryDy=0;" edge="1" parent="1" source="6AxE83Xvaau8DeTZBo7b-74" target="6AxE83Xvaau8DeTZBo7b-78">
          <mxGeometry relative="1" as="geometry" />
        </mxCell>
        <mxCell id="6AxE83Xvaau8DeTZBo7b-74" value="&lt;font face=&quot;helvetica&quot;&gt;线程开始&lt;/font&gt;" style="rounded=0;whiteSpace=wrap;html=1;" vertex="1" parent="1">
          <mxGeometry x="307.5" y="751.25" width="60" height="42.5" as="geometry" />
        </mxCell>
        <mxCell id="6AxE83Xvaau8DeTZBo7b-85" style="edgeStyle=orthogonalEdgeStyle;rounded=0;orthogonalLoop=1;jettySize=auto;html=1;exitX=0;exitY=0.5;exitDx=0;exitDy=0;" edge="1" parent="1" source="6AxE83Xvaau8DeTZBo7b-78" target="6AxE83Xvaau8DeTZBo7b-84">
          <mxGeometry relative="1" as="geometry" />
        </mxCell>
        <mxCell id="6AxE83Xvaau8DeTZBo7b-78" value="所有线程是否结束？" style="rhombus;whiteSpace=wrap;html=1;" vertex="1" parent="1">
          <mxGeometry x="240" y="820" width="195" height="80" as="geometry" />
        </mxCell>
        <mxCell id="6AxE83Xvaau8DeTZBo7b-80" style="edgeStyle=orthogonalEdgeStyle;rounded=0;orthogonalLoop=1;jettySize=auto;html=1;" edge="1" parent="1" source="6AxE83Xvaau8DeTZBo7b-78" target="6AxE83Xvaau8DeTZBo7b-78">
          <mxGeometry relative="1" as="geometry" />
        </mxCell>
        <mxCell id="6AxE83Xvaau8DeTZBo7b-81" value="否" style="text;html=1;strokeColor=none;fillColor=none;align=center;verticalAlign=middle;whiteSpace=wrap;rounded=0;" vertex="1" parent="1">
          <mxGeometry x="407.5" y="820" width="60" height="30" as="geometry" />
        </mxCell>
        <mxCell id="6AxE83Xvaau8DeTZBo7b-83" value="是" style="text;html=1;strokeColor=none;fillColor=none;align=center;verticalAlign=middle;whiteSpace=wrap;rounded=0;" vertex="1" parent="1">
          <mxGeometry x="170" y="830" width="60" height="30" as="geometry" />
        </mxCell>
        <mxCell id="6AxE83Xvaau8DeTZBo7b-84" value="开始" style="rounded=1;whiteSpace=wrap;html=1;" vertex="1" parent="1">
          <mxGeometry x="92.5" y="845" width="70" height="30" as="geometry" />
        </mxCell>
      </root>
    </mxGraphModel>
  </diagram>
</mxfile>
